<svg xmlns="http://www.w3.org/2000/svg" xmlns:xlink="http://www.w3.org/1999/xlink" width="500" zoomAndPan="magnify" viewBox="0 0 375 374.999991" height="500" preserveAspectRatio="xMidYMid meet" version="1.0"><defs><g/><clipPath id="id1"><path d="M 76.59375 177.8125 L 298.59375 177.8125 L 298.59375 257 L 76.59375 257 Z M 76.59375 177.8125 " clip-rule="nonzero"/></clipPath></defs><g clip-path="url(#id1)"><path fill="#ffde59" d="M 125.707031 207.027344 C 131.945312 235.214844 157.113281 256.335938 187.195312 256.335938 C 217.273438 256.335938 242.445312 235.261719 248.683594 207.027344 L 298.578125 207.027344 L 298.578125 177.8125 L 76.605469 177.8125 L 76.605469 207.027344 L 125.707031 207.027344 " fill-opacity="1" fill-rule="nonzero"/></g><g fill="#ffde59" fill-opacity="1"><g transform="translate(74.166996, 163.734862)"><g><path d="M 45.734375 0 L 45.734375 -6.234375 C 40.660156 -2.078125 34.921875 0 28.515625 0 C 21.054688 0.0703125 14.648438 -2.53125 9.296875 -7.8125 C 3.941406 -13.09375 1.226562 -19.503906 1.15625 -27.046875 C 1.09375 -34.503906 3.703125 -40.910156 8.984375 -46.265625 C 14.265625 -51.617188 20.671875 -54.328125 28.203125 -54.390625 C 34.753906 -54.390625 40.5625 -52.316406 45.625 -48.171875 L 45.625 -73.71875 L 60.421875 -73.71875 L 60.515625 0 Z M 37.921875 -17.75 C 40.523438 -20.351562 41.828125 -23.519531 41.828125 -27.25 C 41.679688 -31.050781 40.34375 -34.21875 37.8125 -36.75 C 35.132812 -39.289062 31.96875 -40.5625 28.3125 -40.5625 C 24.570312 -40.5625 21.398438 -39.257812 18.796875 -36.65625 C 16.191406 -33.769531 14.925781 -30.597656 15 -27.140625 C 15 -23.410156 16.300781 -20.242188 18.90625 -17.640625 C 21.507812 -15.035156 24.675781 -13.734375 28.40625 -13.734375 C 32.207031 -13.867188 35.378906 -15.207031 37.921875 -17.75 Z M 37.921875 -17.75 "/></g></g></g><g fill="#ffde59" fill-opacity="1"><g transform="translate(137.857387, 163.734862)"><g><path d="M 46.6875 -6.546875 C 41.539062 -2.179688 35.554688 0 28.734375 0 C 21.191406 -0.0703125 14.78125 -2.785156 9.5 -8.140625 C 4.21875 -13.484375 1.613281 -19.890625 1.6875 -27.359375 C 1.757812 -34.890625 4.472656 -41.296875 9.828125 -46.578125 C 15.171875 -51.859375 21.578125 -54.460938 29.046875 -54.390625 C 35.804688 -54.328125 41.722656 -52.078125 46.796875 -47.640625 L 36.96875 -37.921875 C 34.570312 -39.679688 31.894531 -40.5625 28.9375 -40.5625 C 25.28125 -40.5625 22.113281 -39.289062 19.4375 -36.75 C 16.832031 -34.144531 15.53125 -30.976562 15.53125 -27.25 C 15.382812 -23.59375 16.648438 -20.425781 19.328125 -17.75 C 21.859375 -15.207031 25.023438 -13.867188 28.828125 -13.734375 C 31.785156 -13.734375 34.460938 -14.613281 36.859375 -16.375 Z M 46.6875 -6.546875 "/></g></g></g><g fill="#ffde59" fill-opacity="1"><g transform="translate(186.232512, 163.734862)"><g><path d="M 31.375 -14.78125 L 51.546875 -14.78125 L 51.546875 0 L 3.171875 0 L 36.125 -47.3125 C 36.757812 -48.375 37.078125 -49.609375 37.078125 -51.015625 C 37.078125 -53.203125 36.300781 -55.035156 34.75 -56.515625 C 33.269531 -58.054688 31.441406 -58.828125 29.265625 -58.828125 C 27.078125 -58.828125 25.242188 -58.054688 23.765625 -56.515625 C 22.210938 -55.035156 21.4375 -53.203125 21.4375 -51.015625 L 6.65625 -51.015625 C 6.65625 -54.179688 7.21875 -57.101562 8.34375 -59.78125 C 9.46875 -62.457031 11.085938 -64.851562 13.203125 -66.96875 C 15.242188 -69.007812 17.640625 -70.628906 20.390625 -71.828125 C 23.347656 -73.023438 26.304688 -73.625 29.265625 -73.625 C 32.285156 -73.625 35.207031 -73.023438 38.03125 -71.828125 C 40.914062 -70.628906 43.304688 -69.007812 45.203125 -66.96875 C 47.242188 -65.0625 48.863281 -62.664062 50.0625 -59.78125 C 51.257812 -56.96875 51.859375 -54.046875 51.859375 -51.015625 C 51.859375 -48.054688 51.257812 -45.097656 50.0625 -42.140625 C 49.5 -40.660156 48.691406 -39.179688 47.640625 -37.703125 Z M 31.375 -14.78125 "/></g></g></g><g fill="#ffde59" fill-opacity="1"><g transform="translate(241.261863, 163.734862)"><g><path d="M 3.171875 -54.609375 L 16.90625 -54.609375 L 16.90625 -27.140625 C 16.90625 -26.085938 17.078125 -24.890625 17.421875 -23.546875 C 17.847656 -21.929688 18.484375 -20.457031 19.328125 -19.125 C 21.648438 -15.601562 24.960938 -13.84375 29.265625 -13.84375 C 33.972656 -13.84375 37.382812 -15.632812 39.5 -19.21875 C 40.28125 -20.488281 40.84375 -21.96875 41.1875 -23.65625 C 41.46875 -24.851562 41.609375 -26.050781 41.609375 -27.25 L 41.609375 -54.609375 L 56.40625 -54.609375 L 56.40625 0 L 41.609375 0 L 41.609375 -5.703125 C 38.160156 -1.898438 33.726562 0 28.3125 0 C 21.332031 0.0703125 15.414062 -2.425781 10.5625 -7.5 C 5.632812 -12.5 3.171875 -18.695312 3.171875 -26.09375 Z M 3.171875 -54.609375 "/></g></g></g></svg>