<?xml version="1.0" standalone="no"?>
<!DOCTYPE svg PUBLIC "-//W3C//DTD SVG 20010904//EN"
 "http://www.w3.org/TR/2001/REC-SVG-20010904/DTD/svg10.dtd">
<svg version="1.0" xmlns="http://www.w3.org/2000/svg"
 width="500.000000pt" height="500.000000pt" viewBox="0 0 500.000000 500.000000"
 preserveAspectRatio="xMidYMid meet">
<metadata>
Created by potrace 1.16, written by Peter Selinger 2001-2019
</metadata>
<g transform="translate(0.000000,500.000000) scale(0.100000,-0.100000)"
fill="#000000" stroke="none">
<path d="M1478 3583 c-3 -324 -3 -328 -24 -331 -13 -2 -38 12 -65 34 -104 87
-271 129 -417 104 -194 -32 -328 -162 -383 -367 -30 -109 -30 -287 0 -396 55
-209 190 -356 366 -402 47 -12 122 -15 357 -15 l298 0 0 81 0 81 60 -55 c109
-102 229 -142 401 -135 96 4 113 8 180 40 41 19 94 53 119 75 l45 40 -3 -49
c-3 -28 1 -55 8 -63 11 -13 97 -15 614 -15 503 0 609 -3 650 -15 64 -19 196
-19 271 0 79 21 144 58 223 127 36 32 70 57 76 55 6 -2 12 -39 14 -85 l3 -82
69 0 70 0 0 575 0 575 -70 0 -69 0 -3 -413 -3 -412 -34 -70 c-43 -87 -121
-167 -198 -203 -50 -23 -71 -27 -148 -27 -54 0 -103 6 -122 14 -31 13 -33 17
-33 62 l0 49 -58 -6 c-57 -6 -58 -6 -86 30 -86 113 -125 301 -95 462 10 53 17
66 82 134 75 78 119 154 137 235 6 26 20 60 30 76 25 34 25 55 1 68 -13 7 -20
26 -24 69 -18 171 -131 319 -307 401 -121 57 -208 74 -375 75 -175 1 -244 -13
-372 -76 -134 -65 -216 -160 -249 -288 -37 -144 11 -270 118 -315 53 -21 82
-19 117 11 33 27 41 54 17 54 -26 0 -74 50 -91 95 -13 32 -16 65 -13 122 8
173 113 293 302 348 72 21 229 24 306 6 225 -53 377 -230 392 -456 l3 -40 -70
-6 c-114 -9 -174 -55 -147 -114 18 -40 56 -33 83 15 24 42 69 70 114 70 27 0
27 0 20 -52 -18 -134 -69 -233 -162 -318 -95 -87 -193 -138 -468 -241 -286
-109 -384 -164 -475 -270 -91 -106 -138 -147 -211 -183 -265 -129 -515 -5
-600 297 -31 108 -33 335 -5 437 60 218 193 346 370 358 39 2 90 -1 114 -7 56
-16 118 -76 171 -169 23 -40 53 -79 66 -88 36 -23 77 -15 94 20 46 98 -108
232 -314 272 -173 33 -361 -19 -486 -136 l-49 -46 0 353 0 353 -65 0 -65 0 -2
-327z m-207 -270 c85 -39 146 -95 175 -158 24 -50 24 -52 24 -447 0 -276 -3
-405 -11 -422 -16 -35 -57 -46 -168 -46 -222 1 -341 40 -440 145 -217 229
-193 717 45 897 73 56 114 68 219 65 76 -2 100 -7 156 -34z m2104 -500 c-40
-154 -13 -333 65 -442 17 -23 26 -41 22 -41 -5 0 -179 -18 -387 -40 -440 -47
-465 -48 -490 -20 -42 46 10 197 94 273 73 65 145 98 389 181 123 42 240 85
260 96 49 26 55 25 47 -7z"/>
<path d="M1725 1990 c-11 -5 -14 -9 -7 -9 7 -1 12 -16 12 -39 l0 -38 -39 4
c-32 3 -45 -1 -65 -22 -32 -31 -34 -83 -5 -119 18 -24 26 -26 92 -25 40 0 66
3 60 5 -10 3 -13 39 -13 129 0 68 -3 124 -7 123 -5 0 -17 -4 -28 -9z"/>
<path d="M2041 1932 c-8 -15 -23 -22 -53 -24 -31 -2 -46 -10 -61 -30 -18 -24
-18 -30 -7 -57 7 -17 17 -31 23 -31 6 0 3 -6 -8 -13 -26 -20 -12 -34 42 -40
69 -7 93 -47 53 -87 -44 -44 -118 -7 -104 53 6 28 5 30 -10 18 -17 -14 -21
-48 -8 -67 23 -34 85 -43 132 -19 65 33 29 115 -49 115 -56 0 -59 13 -5 25 62
13 85 47 67 96 -11 28 -10 34 5 45 13 10 14 15 5 24 -8 9 -14 7 -22 -8z"/>
</g>
</svg>
